<svg width="12" height="12" viewBox="0 0 12 12" fill="none" xmlns="http://www.w3.org/2000/svg">
<path d="M7.02338 9.01308L4.37134 7.63921C4.0251 7.99081 3.57553 8.23536 3.08106 8.34107C2.58658 8.44679 2.07006 8.40877 1.59863 8.23198C1.12719 8.05518 0.722641 7.74777 0.437547 7.3497C0.152453 6.95163 0 6.48131 0 5.99986C0 5.51841 0.152453 5.04809 0.437547 4.65002C0.722641 4.25195 1.12719 3.94455 1.59863 3.76775C2.07006 3.59095 2.58658 3.55294 3.08106 3.65865C3.57553 3.76436 4.0251 4.00891 4.37134 4.36052L7.02401 2.98664C6.87363 2.42028 6.94588 1.82125 7.2272 1.30186C7.50853 0.782474 7.97962 0.37838 8.55217 0.165329C9.12472 -0.0477215 9.75941 -0.0551005 10.3373 0.144575C10.9151 0.344251 11.3965 0.737272 11.6911 1.24996C11.9858 1.76266 12.0734 2.35982 11.9377 2.92952C11.8019 3.49921 11.4521 4.00232 10.9538 4.34454C10.4555 4.68676 9.84286 4.84458 9.2308 4.78844C8.61873 4.73229 8.04924 4.46602 7.62907 4.03955L4.9764 5.41342C5.07822 5.7982 5.07822 6.20093 4.9764 6.58571L7.62907 7.95958C8.04946 7.53331 8.61907 7.26732 9.23115 7.21145C9.84323 7.15559 10.4558 7.31369 10.9539 7.65612C11.452 7.99855 11.8016 8.50181 11.9371 9.07155C12.0725 9.64129 11.9846 10.2384 11.6897 10.751C11.3949 11.2635 10.9134 11.6563 10.3354 11.8558C9.75747 12.0552 9.12279 12.0476 8.55035 11.8343C7.9779 11.621 7.50699 11.2168 7.22589 10.6973C6.94478 10.1778 6.87278 9.57878 7.02338 9.01248M2.52648 7.19945C2.86149 7.19945 3.18279 7.07303 3.41968 6.84801C3.65657 6.62299 3.78965 6.31779 3.78965 5.99956C3.78965 5.68133 3.65657 5.37614 3.41968 5.15111C3.18279 4.92609 2.86149 4.79967 2.52648 4.79967C2.19146 4.79967 1.87017 4.92609 1.63328 5.15111C1.39639 5.37614 1.2633 5.68133 1.2633 5.99956C1.2633 6.31779 1.39639 6.62299 1.63328 6.84801C1.87017 7.07303 2.19146 7.19945 2.52648 7.19945ZM9.47394 3.59979C9.80895 3.59979 10.1302 3.47337 10.3671 3.24835C10.604 3.02332 10.7371 2.71813 10.7371 2.3999C10.7371 2.08167 10.604 1.77647 10.3671 1.55145C10.1302 1.32643 9.80895 1.20001 9.47394 1.20001C9.13892 1.20001 8.81763 1.32643 8.58074 1.55145C8.34385 1.77647 8.21076 2.08167 8.21076 2.3999C8.21076 2.71813 8.34385 3.02332 8.58074 3.24835C8.81763 3.47337 9.13892 3.59979 9.47394 3.59979ZM9.47394 10.7991C9.80895 10.7991 10.1302 10.6727 10.3671 10.4477C10.604 10.2227 10.7371 9.91745 10.7371 9.59923C10.7371 9.28099 10.604 8.9758 10.3671 8.75078C10.1302 8.52575 9.80895 8.39934 9.47394 8.39934C9.13892 8.39934 8.81763 8.52575 8.58074 8.75078C8.34385 8.9758 8.21076 9.28099 8.21076 9.59923C8.21076 9.91745 8.34385 10.2227 8.58074 10.4477C8.81763 10.6727 9.13892 10.7991 9.47394 10.7991Z" fill="black"/>
</svg>
