<svg width="16" height="17" viewBox="0 0 16 17" fill="none" xmlns="http://www.w3.org/2000/svg">
<path fill-rule="evenodd" clip-rule="evenodd" d="M3 12C3.39782 12 3.77936 12.158 4.06066 12.4393C4.34196 12.7206 4.5 13.1022 4.5 13.5C4.5 13.8978 4.34196 14.2794 4.06066 14.5607C3.77936 14.842 3.39782 15 3 15C2.60218 15 2.22064 14.842 1.93934 14.5607C1.65804 14.2794 1.5 13.8978 1.5 13.5C1.5 13.1022 1.65804 12.7206 1.93934 12.4393C2.22064 12.158 2.60218 12 3 12ZM8 12C8.39782 12 8.77936 12.158 9.06066 12.4393C9.34196 12.7206 9.5 13.1022 9.5 13.5C9.5 13.8978 9.34196 14.2794 9.06066 14.5607C8.77936 14.842 8.39782 15 8 15C7.60218 15 7.22064 14.842 6.93934 14.5607C6.65804 14.2794 6.5 13.8978 6.5 13.5C6.5 13.1022 6.65804 12.7206 6.93934 12.4393C7.22064 12.158 7.60218 12 8 12ZM13 12C13.3978 12 13.7794 12.158 14.0607 12.4393C14.342 12.7206 14.5 13.1022 14.5 13.5C14.5 13.8978 14.342 14.2794 14.0607 14.5607C13.7794 14.842 13.3978 15 13 15C12.6022 15 12.2206 14.842 11.9393 14.5607C11.658 14.2794 11.5 13.8978 11.5 13.5C11.5 13.1022 11.658 12.7206 11.9393 12.4393C12.2206 12.158 12.6022 12 13 12ZM3 7C3.39782 7 3.77936 7.15804 4.06066 7.43934C4.34196 7.72064 4.5 8.10218 4.5 8.5C4.5 8.89782 4.34196 9.27936 4.06066 9.56066C3.77936 9.84196 3.39782 10 3 10C2.60218 10 2.22064 9.84196 1.93934 9.56066C1.65804 9.27936 1.5 8.89782 1.5 8.5C1.5 8.10218 1.65804 7.72064 1.93934 7.43934C2.22064 7.15804 2.60218 7 3 7ZM8 7C8.39782 7 8.77936 7.15804 9.06066 7.43934C9.34196 7.72064 9.5 8.10218 9.5 8.5C9.5 8.89782 9.34196 9.27936 9.06066 9.56066C8.77936 9.84196 8.39782 10 8 10C7.60218 10 7.22064 9.84196 6.93934 9.56066C6.65804 9.27936 6.5 8.89782 6.5 8.5C6.5 8.10218 6.65804 7.72064 6.93934 7.43934C7.22064 7.15804 7.60218 7 8 7ZM13 7C13.3978 7 13.7794 7.15804 14.0607 7.43934C14.342 7.72064 14.5 8.10218 14.5 8.5C14.5 8.89782 14.342 9.27936 14.0607 9.56066C13.7794 9.84196 13.3978 10 13 10C12.6022 10 12.2206 9.84196 11.9393 9.56066C11.658 9.27936 11.5 8.89782 11.5 8.5C11.5 8.10218 11.658 7.72064 11.9393 7.43934C12.2206 7.15804 12.6022 7 13 7ZM3 2C3.39782 2 3.77936 2.15804 4.06066 2.43934C4.34196 2.72064 4.5 3.10218 4.5 3.5C4.5 3.89782 4.34196 4.27936 4.06066 4.56066C3.77936 4.84196 3.39782 5 3 5C2.60218 5 2.22064 4.84196 1.93934 4.56066C1.65804 4.27936 1.5 3.89782 1.5 3.5C1.5 3.10218 1.65804 2.72064 1.93934 2.43934C2.22064 2.15804 2.60218 2 3 2ZM8 2C8.39782 2 8.77936 2.15804 9.06066 2.43934C9.34196 2.72064 9.5 3.10218 9.5 3.5C9.5 3.89782 9.34196 4.27936 9.06066 4.56066C8.77936 4.84196 8.39782 5 8 5C7.60218 5 7.22064 4.84196 6.93934 4.56066C6.65804 4.27936 6.5 3.89782 6.5 3.5C6.5 3.10218 6.65804 2.72064 6.93934 2.43934C7.22064 2.15804 7.60218 2 8 2ZM13 2C13.3978 2 13.7794 2.15804 14.0607 2.43934C14.342 2.72064 14.5 3.10218 14.5 3.5C14.5 3.89782 14.342 4.27936 14.0607 4.56066C13.7794 4.84196 13.3978 5 13 5C12.6022 5 12.2206 4.84196 11.9393 4.56066C11.658 4.27936 11.5 3.89782 11.5 3.5C11.5 3.10218 11.658 2.72064 11.9393 2.43934C12.2206 2.15804 12.6022 2 13 2Z" fill="#222222"/>
</svg>
