<svg width="16" height="17" viewBox="0 0 16 17" fill="none" xmlns="http://www.w3.org/2000/svg">
<path d="M8 9.8086C7.50555 9.8086 7.0222 9.66197 6.61108 9.38727C6.19995 9.11257 5.87952 8.72212 5.6903 8.2653C5.50108 7.80849 5.45157 7.30582 5.54804 6.82087C5.6445 6.33592 5.8826 5.89046 6.23223 5.54083C6.58187 5.1912 7.02732 4.95309 7.51228 4.85663C7.99723 4.76017 8.4999 4.80968 8.95671 4.9989C9.41353 5.18812 9.80397 5.50855 10.0787 5.91967C10.3534 6.33079 10.5 6.81414 10.5 7.3086C10.4992 7.97139 10.2356 8.60682 9.76689 9.07549C9.29822 9.54416 8.6628 9.8078 8 9.8086ZM8 5.8086C7.70333 5.8086 7.41332 5.89657 7.16665 6.06139C6.91997 6.22621 6.72771 6.46048 6.61418 6.73457C6.50065 7.00866 6.47095 7.31026 6.52882 7.60123C6.5867 7.8922 6.72956 8.15948 6.93934 8.36926C7.14912 8.57903 7.41639 8.7219 7.70737 8.77977C7.99834 8.83765 8.29994 8.80795 8.57403 8.69442C8.84812 8.58088 9.08238 8.38862 9.24721 8.14195C9.41203 7.89528 9.5 7.60527 9.5 7.3086C9.4996 6.91089 9.34144 6.52959 9.06022 6.24837C8.77901 5.96715 8.3977 5.80899 8 5.8086Z" fill="#222222"/>
<path d="M8 15.8086L3.782 10.8341C3.72339 10.7594 3.66539 10.6842 3.608 10.6086C2.88786 9.65929 2.49866 8.50014 2.5 7.30859C2.5 5.8499 3.07947 4.45096 4.11092 3.41951C5.14237 2.38806 6.54131 1.80859 8 1.80859C9.45869 1.80859 10.8576 2.38806 11.8891 3.41951C12.9205 4.45096 13.5 5.8499 13.5 7.30859C13.5012 8.49957 13.1122 9.65814 12.3925 10.6071L12.392 10.6086C12.392 10.6086 12.242 10.8056 12.2195 10.8321L8 15.8086ZM4.4065 10.0061C4.4065 10.0061 4.523 10.1601 4.5495 10.1931L8 14.2626L11.455 10.1876C11.477 10.1601 11.594 10.0051 11.5945 10.0046C12.1831 9.22917 12.5012 8.28211 12.5 7.30859C12.5 6.11512 12.0259 4.97053 11.182 4.12661C10.3381 3.2827 9.19348 2.80859 8 2.80859C6.80653 2.80859 5.66194 3.2827 4.81802 4.12661C3.97411 4.97053 3.5 6.11512 3.5 7.30859C3.49877 8.28274 3.81723 9.23039 4.4065 10.0061Z" fill="#222222"/>
</svg>
