<svg width="19" height="20" viewBox="0 0 19 20" fill="none" xmlns="http://www.w3.org/2000/svg">
<g clip-path="url(#clip0_920_6198)">
<path d="M16.355 4.72266H12.1328V5.77821H16.355V16.8615H12.1328V17.9171H17.4106V5.77821C17.4106 5.49826 17.2994 5.22978 17.1014 5.03182C16.9035 4.83387 16.635 4.72266 16.355 4.72266Z" fill="#5E5E5E"/>
<path d="M10.4983 2.08398H3.23608C2.93933 2.08398 2.65473 2.20187 2.4449 2.4117C2.23507 2.62153 2.11719 2.90613 2.11719 3.20287V17.9173H11.6172V3.20287C11.6172 2.90613 11.4993 2.62153 11.2895 2.4117C11.0796 2.20187 10.795 2.08398 10.4983 2.08398ZM10.5616 16.8618H8.9783V15.2784H4.75608V16.8618H3.17274V3.20287C3.17274 3.19456 3.17438 3.18632 3.17756 3.17864C3.18075 3.17095 3.18541 3.16397 3.19129 3.15809C3.19717 3.15221 3.20416 3.14754 3.21184 3.14436C3.21952 3.14118 3.22776 3.13954 3.23608 3.13954H10.4983C10.5066 3.13954 10.5149 3.14118 10.5225 3.14436C10.5302 3.14754 10.5372 3.15221 10.5431 3.15809C10.549 3.16397 10.5536 3.17095 10.5568 3.17864C10.56 3.18632 10.5616 3.19456 10.5616 3.20287V16.8618Z" fill="#5E5E5E"/>
<path d="M4.21875 4.72266H5.27431V5.77821H4.21875V4.72266Z" fill="#5E5E5E"/>
<path d="M6.33594 4.72266H7.39149V5.77821H6.33594V4.72266Z" fill="#5E5E5E"/>
<path d="M8.44531 4.72266H9.50087V5.77821H8.44531V4.72266Z" fill="#5E5E5E"/>
<path d="M4.21875 7.36328H5.27431V8.41884H4.21875V7.36328Z" fill="#5E5E5E"/>
<path d="M6.33594 7.36328H7.39149V8.41884H6.33594V7.36328Z" fill="#5E5E5E"/>
<path d="M8.44531 7.36133H9.50087V8.41688H8.44531V7.36133Z" fill="#5E5E5E"/>
<path d="M4.21875 10H5.27431V11.0556H4.21875V10Z" fill="#5E5E5E"/>
<path d="M6.33594 10H7.39149V11.0556H6.33594V10Z" fill="#5E5E5E"/>
<path d="M8.44531 10H9.50087V11.0556H8.44531V10Z" fill="#5E5E5E"/>
<path d="M4.21875 12.6406H5.27431V13.6962H4.21875V12.6406Z" fill="#5E5E5E"/>
<path d="M6.33594 12.6406H7.39149V13.6962H6.33594V12.6406Z" fill="#5E5E5E"/>
<path d="M8.44531 12.6387H9.50087V13.6942H8.44531V12.6387Z" fill="#5E5E5E"/>
<path d="M12.1328 7.36133H13.1884V8.41688H12.1328V7.36133Z" fill="#5E5E5E"/>
<path d="M14.25 7.36133H15.3056V8.41688H14.25V7.36133Z" fill="#5E5E5E"/>
<path d="M12.1328 10H13.1884V11.0556H12.1328V10Z" fill="#5E5E5E"/>
<path d="M14.25 10H15.3056V11.0556H14.25V10Z" fill="#5E5E5E"/>
<path d="M12.1328 12.6387H13.1884V13.6942H12.1328V12.6387Z" fill="#5E5E5E"/>
<path d="M14.25 12.6387H15.3056V13.6942H14.25V12.6387Z" fill="#5E5E5E"/>
</g>
<defs>
<clipPath id="clip0_920_6198">
<rect width="19" height="19" fill="white" transform="translate(0 0.5)"/>
</clipPath>
</defs>
</svg>
