<svg width="20" height="20" viewBox="0 0 20 20" fill="none" xmlns="http://www.w3.org/2000/svg">
<g clip-path="url(#clip0_1522_9239)">
<path d="M17.2159 4.44531H12.7715V5.55642H17.2159V17.2231H12.7715V18.3342H18.327V5.55642C18.327 5.26174 18.21 4.97912 18.0016 4.77075C17.7932 4.56238 17.5106 4.44531 17.2159 4.44531Z" fill="#222222"/>
<path d="M11.0507 1.66797H3.40629C3.09393 1.66797 2.79435 1.79206 2.57348 2.01293C2.3526 2.23381 2.22852 2.53338 2.22852 2.84575V18.3346H12.2285V2.84575C12.2285 2.53338 12.1044 2.23381 11.8836 2.01293C11.6627 1.79206 11.3631 1.66797 11.0507 1.66797ZM11.1174 17.2235H9.45074V15.5569H5.00629V17.2235H3.33963V2.84575C3.33963 2.83699 3.34135 2.82832 3.3447 2.82023C3.34805 2.81215 3.35296 2.8048 3.35915 2.79861C3.36534 2.79242 3.37269 2.7875 3.38078 2.78415C3.38887 2.7808 3.39754 2.77908 3.40629 2.77908H11.0507C11.0595 2.77908 11.0682 2.7808 11.0763 2.78415C11.0843 2.7875 11.0917 2.79242 11.0979 2.79861C11.1041 2.8048 11.109 2.81215 11.1123 2.82023C11.1157 2.82832 11.1174 2.83699 11.1174 2.84575V17.2235Z" fill="#222222"/>
<path d="M4.44043 4.44531H5.55154V5.55642H4.44043V4.44531Z" fill="#222222"/>
<path d="M6.66895 4.44531H7.78006V5.55642H6.66895V4.44531Z" fill="#222222"/>
<path d="M8.88965 4.44531H10.0008V5.55642H8.88965V4.44531Z" fill="#222222"/>
<path d="M4.44043 7.22461H5.55154V8.33572H4.44043V7.22461Z" fill="#222222"/>
<path d="M6.66895 7.22461H7.78006V8.33572H6.66895V7.22461Z" fill="#222222"/>
<path d="M8.88965 7.22266H10.0008V8.33377H8.88965V7.22266Z" fill="#222222"/>
<path d="M4.44043 10H5.55154V11.1111H4.44043V10Z" fill="#222222"/>
<path d="M6.66895 10H7.78006V11.1111H6.66895V10Z" fill="#222222"/>
<path d="M8.88965 10H10.0008V11.1111H8.88965V10Z" fill="#222222"/>
<path d="M4.44043 12.7793H5.55154V13.8904H4.44043V12.7793Z" fill="#222222"/>
<path d="M6.66895 12.7793H7.78006V13.8904H6.66895V12.7793Z" fill="#222222"/>
<path d="M8.88965 12.7773H10.0008V13.8885H8.88965V12.7773Z" fill="#222222"/>
<path d="M12.7715 7.22266H13.8826V8.33377H12.7715V7.22266Z" fill="#222222"/>
<path d="M15 7.22266H16.1111V8.33377H15V7.22266Z" fill="#222222"/>
<path d="M12.7715 10H13.8826V11.1111H12.7715V10Z" fill="#222222"/>
<path d="M15 10H16.1111V11.1111H15V10Z" fill="#222222"/>
<path d="M12.7715 12.7773H13.8826V13.8885H12.7715V12.7773Z" fill="#222222"/>
<path d="M15 12.7773H16.1111V13.8885H15V12.7773Z" fill="#222222"/>
</g>
<defs>
<clipPath id="clip0_1522_9239">
<rect width="20" height="20" fill="white"/>
</clipPath>
</defs>
</svg>
