<svg width="21" height="22" viewBox="0 0 21 22" fill="none" xmlns="http://www.w3.org/2000/svg">
<path fill-rule="evenodd" clip-rule="evenodd" d="M21 11C21 16.7991 16.2991 21.5 10.5 21.5C4.70101 21.5 0 16.7991 0 11C0 5.20101 4.70101 0.5 10.5 0.5C16.2991 0.5 21 5.20101 21 11ZM19.3846 11C19.3846 15.9069 15.4069 19.8846 10.5 19.8846C5.59316 19.8846 1.61538 15.9069 1.61538 11C1.61538 6.09316 5.59316 2.11538 10.5 2.11538C15.4069 2.11538 19.3846 6.09316 19.3846 11Z" fill="#151515"/>
<path fill-rule="evenodd" clip-rule="evenodd" d="M10.4991 5.34766C10.9452 5.34766 11.3068 5.70928 11.3068 6.15535V10.1938H15.3453C15.7913 10.1938 16.1529 10.5554 16.1529 11.0015C16.1529 11.4476 15.7913 11.8092 15.3453 11.8092H10.4991C10.053 11.8092 9.69141 11.4476 9.69141 11.0015V6.15535C9.69141 5.70928 10.053 5.34766 10.4991 5.34766Z" fill="#151515"/>
</svg>
