<svg width="21" height="21" viewBox="0 0 21 21" fill="none" xmlns="http://www.w3.org/2000/svg"><path d="M14.6652 11.1416L11.3319 18.6416C10.6689 18.6416 10.033 18.3782 9.56413 17.9093C9.09529 17.4405 8.83189 16.8046 8.83189 16.1416V12.8082H4.11523C3.87364 12.811 3.63434 12.7612 3.41392 12.6622C3.19349 12.5633 2.99721 12.4176 2.83868 12.2353C2.68014 12.053 2.56314 11.8384 2.49578 11.6064C2.42842 11.3743 2.4123 11.1304 2.44856 10.8916L3.59856 3.39158C3.65883 2.99416 3.8607 2.6319 4.16697 2.37157C4.47325 2.11124 4.86329 1.97037 5.26523 1.97491H14.6652M14.6652 11.1416V1.97491M14.6652 11.1416H16.8902C17.3619 11.1499 17.8201 10.9848 18.1781 10.6776C18.536 10.3703 18.7687 9.94236 18.8319 9.47491V3.64158C18.7687 3.17413 18.536 2.74616 18.1781 2.43893C17.8201 2.13169 17.3619 1.96657 16.8902 1.97491H14.6652" stroke="#222222" stroke-linecap="round" stroke-linejoin="round"/></svg>