<svg width="20" height="20" viewBox="0 0 20 20" fill="none" xmlns="http://www.w3.org/2000/svg">
<path d="M8.33189 12.4997V15.833C8.33189 16.496 8.59529 17.1319 9.06413 17.6008C9.53297 18.0696 10.1689 18.333 10.8319 18.333L14.1652 10.833V1.66632H4.76523C4.36329 1.66177 3.97325 1.80265 3.66697 2.06298C3.3607 2.32331 3.15883 2.68556 3.09856 3.08298L1.94856 10.583C1.9123 10.8219 1.92842 11.0658 1.99578 11.2978C2.06314 11.5298 2.18014 11.7444 2.33868 11.9267C2.49721 12.109 2.69349 12.2547 2.91392 12.3536C3.13434 12.4526 3.37364 12.5024 3.61523 12.4997H8.33189ZM14.1652 1.66632H16.3902C16.8619 1.65798 17.3201 1.8231 17.6781 2.13033C18.036 2.43757 18.2687 2.86553 18.3319 3.33298V9.16632C18.2687 9.63377 18.036 10.0617 17.6781 10.369C17.3201 10.6762 16.8619 10.8413 16.3902 10.833H14.1652" fill="#222222"/>
<path d="M14.1652 10.833L10.8319 18.333C10.1689 18.333 9.53297 18.0696 9.06413 17.6008C8.59529 17.1319 8.33189 16.496 8.33189 15.833V12.4997H3.61523C3.37364 12.5024 3.13434 12.4526 2.91392 12.3536C2.69349 12.2547 2.49721 12.109 2.33868 11.9267C2.18014 11.7444 2.06314 11.5298 1.99578 11.2978C1.92842 11.0657 1.9123 10.8219 1.94856 10.583L3.09856 3.08298C3.15883 2.68556 3.3607 2.32331 3.66697 2.06298C3.97325 1.80265 4.36329 1.66177 4.76523 1.66632H14.1652M14.1652 10.833V1.66632M14.1652 10.833H16.3902C16.8619 10.8413 17.3201 10.6762 17.6781 10.369C18.036 10.0617 18.2687 9.63377 18.3319 9.16632V3.33298C18.2687 2.86553 18.036 2.43757 17.6781 2.13033C17.3201 1.8231 16.8619 1.65798 16.3902 1.66632H14.1652" stroke="white" stroke-linecap="round" stroke-linejoin="round"/>
</svg>
