<svg width="18" height="18" viewBox="0 0 18 18" fill="none" xmlns="http://www.w3.org/2000/svg">
<path d="M16.8652 0C17.1636 0 17.4498 0.118526 17.6607 0.329505C17.8717 0.540483 17.9902 0.826631 17.9902 1.125V16.875C17.9902 17.1734 17.8717 17.4595 17.6607 17.6705C17.4498 17.8815 17.1636 18 16.8652 18H1.11523C0.816866 18 0.530718 17.8815 0.319739 17.6705C0.108761 17.4595 -0.00976562 17.1734 -0.00976562 16.875V1.125C-0.00976562 0.826631 0.108761 0.540483 0.319739 0.329505C0.530718 0.118526 0.816866 0 1.11523 0L16.8652 0Z" fill="white"/>
<path d="M12.8887 9H10.3912V7.3125C10.3912 6.59812 10.7399 5.90625 11.8537 5.90625H12.9899V3.69C12.9899 3.69 11.9605 3.51562 10.9762 3.51562C8.92305 3.51562 7.57867 4.75875 7.57867 7.01438V9H5.29492V11.5988H7.57867V18H10.3912V11.5988H12.4893L12.8887 9Z" fill="#061132"/>
</svg>
