<svg width="17" height="15" viewBox="0 0 17 15" fill="none" xmlns="http://www.w3.org/2000/svg">
<path fill-rule="evenodd" clip-rule="evenodd" d="M4.05163 2.31295C2.89419 2.83941 2.04651 4.09236 2.04651 5.58632C2.04651 7.11223 2.67442 8.28878 3.57302 9.29726C4.31465 10.1279 5.21186 10.8169 6.08674 11.4878C6.29465 11.6476 6.50116 11.8066 6.70419 11.9657C7.07116 12.2539 7.39837 12.506 7.71442 12.6901C8.02977 12.8735 8.28372 12.9575 8.5 12.9575C8.71628 12.9575 8.97023 12.8741 9.28558 12.6901C9.60163 12.506 9.92884 12.2539 10.2958 11.9657C10.4981 11.8059 10.7053 11.6476 10.9133 11.4885C11.7881 10.8162 12.6853 10.1279 13.427 9.29726C14.3263 8.28878 14.9535 7.11223 14.9535 5.58632C14.9535 4.09306 14.1058 2.83941 12.9484 2.31295C11.8237 1.80107 10.3126 1.9365 8.87674 3.42213C8.82793 3.47254 8.76941 3.51264 8.70468 3.54003C8.63995 3.56742 8.57034 3.58154 8.5 3.58154C8.42966 3.58154 8.36005 3.56742 8.29532 3.54003C8.23059 3.51264 8.17207 3.47254 8.12326 3.42213C6.68744 1.9365 5.17628 1.80107 4.05163 2.31295ZM8.5 2.33795C6.88698 0.900248 5.0807 0.698831 3.61628 1.3649C2.07163 2.06986 1 3.70342 1 5.58702C1 7.43797 1.77442 8.85067 2.79093 9.98972C3.60442 10.9016 4.6 11.665 5.47977 12.3387C5.6793 12.4915 5.87256 12.6401 6.05605 12.7846C6.41395 13.0651 6.79767 13.3638 7.18628 13.5902C7.57488 13.8159 8.0186 14 8.5 14C8.9814 14 9.42512 13.8159 9.81372 13.5902C10.203 13.3638 10.586 13.0651 10.944 12.7846C11.1351 12.6346 11.3271 12.486 11.5202 12.3387C12.3993 11.665 13.3956 10.901 14.2091 9.98972C15.2256 8.85067 16 7.43797 16 5.58702C16 3.70342 14.9291 2.06986 13.3837 1.36629C11.9193 0.699526 10.113 0.900943 8.5 2.33795Z" fill="black" stroke="black" stroke-width="0.3"/>
</svg>
