<svg width="20" height="20" viewBox="0 0 20 20" fill="none" xmlns="http://www.w3.org/2000/svg"><rect width="20" height="20" rx="10" fill="#DD5A5A"/><g clip-path="url(#clip0_3951_18159)"><path d="M10 14.2863C9.90327 14.2863 9.82143 14.2528 9.75446 14.1858L6.27232 10.8265C6.23512 10.7967 6.18397 10.7483 6.11886 10.6814C6.05376 10.6144 5.95052 10.4926 5.80915 10.3158C5.66778 10.1391 5.54129 9.95778 5.42969 9.77176C5.31808 9.58575 5.21856 9.36068 5.13114 9.09654C5.04371 8.8324 5 8.57571 5 8.32645C5 7.508 5.23624 6.86812 5.70871 6.40681C6.18118 5.9455 6.83408 5.71484 7.66741 5.71484C7.89807 5.71484 8.13337 5.75484 8.37333 5.83482C8.61328 5.91481 8.8365 6.02269 9.04297 6.15848C9.24944 6.29427 9.42708 6.42169 9.57589 6.54074C9.7247 6.65978 9.86607 6.78627 10 6.9202C10.1339 6.78627 10.2753 6.65978 10.4241 6.54074C10.5729 6.42169 10.7506 6.29427 10.957 6.15848C11.1635 6.02269 11.3867 5.91481 11.6267 5.83482C11.8666 5.75484 12.1019 5.71484 12.3326 5.71484C13.1659 5.71484 13.8188 5.9455 14.2913 6.40681C14.7638 6.86812 15 7.508 15 8.32645C15 9.14862 14.574 9.98568 13.7221 10.8376L10.2455 14.1858C10.1786 14.2528 10.0967 14.2863 10 14.2863Z" fill="white"/></g><defs><clipPath id="clip0_3951_18159"><rect width="10" height="10" fill="white" transform="translate(5 5)"/></clipPath></defs></svg>