<svg width="18" height="18" viewBox="0 0 18 18" fill="none" xmlns="http://www.w3.org/2000/svg">
<path d="M16.8652 0H1.11523C0.816866 0 0.530718 0.118526 0.319739 0.329505C0.108761 0.540483 -0.00976562 0.826631 -0.00976562 1.125L-0.00976562 16.875C-0.00976562 17.4937 0.496484 18 1.11523 18H16.8652C17.1636 18 17.4498 17.8815 17.6607 17.6705C17.8717 17.4595 17.9902 17.1734 17.9902 16.875V1.125C17.9902 0.826631 17.8717 0.540483 17.6607 0.329505C17.4498 0.118526 17.1636 0 16.8652 0Z" fill="white"/>
<path d="M8.82261 2.25H9.52573C10.8757 2.25 11.1289 2.26125 11.7701 2.28938C12.4901 2.32313 12.9795 2.43563 13.407 2.60438C13.8514 2.77313 14.2282 3.00938 14.6051 3.38063C14.9426 3.71813 15.2126 4.12875 15.3814 4.57875L15.3926 4.6125C15.5501 5.02875 15.6626 5.50125 15.6964 6.1875L15.702 6.4125C15.7301 6.98625 15.7357 7.32938 15.7357 8.8875V9.405C15.7357 10.8675 15.7245 11.1206 15.6964 11.7844C15.6849 12.3439 15.5783 12.8974 15.3814 13.4213C15.2126 13.8713 14.9482 14.2819 14.6051 14.6194C14.267 14.9623 13.8581 15.2272 13.407 15.3956L13.3732 15.4069C12.957 15.5644 12.4789 15.6769 11.7982 15.705L11.5732 15.7163C10.9995 15.7444 10.6564 15.75 9.09823 15.75H8.58073C7.78739 15.7598 6.99394 15.7467 6.20136 15.7106C5.64183 15.6991 5.08832 15.5926 4.56448 15.3956C4.11448 15.2269 3.70386 14.9625 3.36636 14.6194C3.02347 14.2813 2.75855 13.8724 2.59011 13.4213L2.57886 13.3875C2.39304 12.8824 2.29046 12.3505 2.27511 11.8125L2.26948 11.6044C2.23739 10.791 2.22614 9.97703 2.23573 9.16313V8.60063C2.23573 7.12687 2.24698 6.87937 2.27511 6.21563C2.30886 5.50688 2.42136 5.0175 2.58448 4.59562L2.59011 4.57875C2.75886 4.12875 3.02323 3.71813 3.36636 3.38063C3.70446 3.03774 4.11336 2.77282 4.56448 2.60438L4.59823 2.59313C5.10333 2.40731 5.63525 2.30472 6.17323 2.28938L6.38136 2.28375C6.95511 2.25 7.29261 2.25 8.82261 2.25ZM9.33448 3.465H8.63698C7.34323 3.465 7.00011 3.47063 6.49386 3.49312L6.25761 3.50437C5.59948 3.5325 5.24511 3.645 5.00323 3.735C4.68823 3.85875 4.46323 4.005 4.22698 4.24125C4.00198 4.47187 3.85011 4.69125 3.73198 5.00063L3.71511 5.03437C3.57132 5.43136 3.49526 5.84968 3.49011 6.27187L3.47886 6.525C3.45636 7.03125 3.45073 7.38562 3.45073 8.74125V9.34875C3.45073 10.8338 3.46198 11.0644 3.49011 11.7281V11.7675C3.52386 12.4031 3.63073 12.7463 3.72636 12.9825C3.84448 13.2975 3.99073 13.5225 4.23261 13.7587C4.45761 13.9837 4.68261 14.1356 4.98636 14.2537L5.02011 14.2706C5.41709 14.4144 5.83542 14.4905 6.25761 14.4956L6.51073 14.5069C7.01698 14.5294 7.37136 14.535 8.72698 14.535H9.33448C10.8195 14.535 11.0501 14.5238 11.7139 14.4956H11.7532C12.1687 14.4864 12.5796 14.4065 12.9682 14.2594C13.2607 14.1525 13.5251 13.9781 13.7445 13.7531C13.9695 13.5281 14.1214 13.3031 14.2395 12.9994L14.2564 12.9656C14.4001 12.5686 14.4762 12.1503 14.4814 11.7281L14.4926 11.475C14.5151 10.9688 14.5207 10.6144 14.5207 9.25875V8.64563C14.5207 7.16625 14.5095 6.93562 14.4814 6.27187V6.2325C14.4721 5.81703 14.3922 5.40616 14.2451 5.0175C14.1382 4.725 13.9639 4.46062 13.7389 4.24125C13.5268 4.02315 13.2695 3.85418 12.9851 3.74625L12.9514 3.72938C12.5617 3.58734 12.1511 3.51129 11.7364 3.50437L11.4776 3.49312C10.9714 3.47063 10.6339 3.465 9.34011 3.465H9.33448ZM8.98573 5.535C9.90471 5.535 10.786 5.90006 11.4359 6.54988C12.0857 7.19969 12.4507 8.08102 12.4507 9C12.4507 9.91898 12.0857 10.8003 11.4359 11.4501C10.786 12.0999 9.90471 12.465 8.98573 12.465C8.06676 12.465 7.18542 12.0999 6.53561 11.4501C5.88579 10.8003 5.52073 9.91898 5.52073 9C5.52073 8.08102 5.88579 7.19969 6.53561 6.54988C7.18542 5.90006 8.06676 5.535 8.98573 5.535ZM8.98573 6.75C8.389 6.75 7.8167 6.98705 7.39474 7.40901C6.97279 7.83097 6.73573 8.40326 6.73573 9C6.73573 9.59674 6.97279 10.169 7.39474 10.591C7.8167 11.0129 8.389 11.25 8.98573 11.25C9.58247 11.25 10.1548 11.0129 10.5767 10.591C10.9987 10.169 11.2357 9.59674 11.2357 9C11.2357 8.40326 10.9987 7.83097 10.5767 7.40901C10.1548 6.98705 9.58247 6.75 8.98573 6.75ZM12.5857 4.58437C12.8006 4.58437 13.0066 4.66971 13.1585 4.82162C13.3104 4.97352 13.3957 5.17955 13.3957 5.39438C13.3957 5.6092 13.3104 5.81523 13.1585 5.96713C13.0066 6.11904 12.8006 6.20437 12.5857 6.20437C12.3709 6.20437 12.1649 6.11904 12.013 5.96713C11.8611 5.81523 11.7757 5.6092 11.7757 5.39438C11.7757 5.17955 11.8611 4.97352 12.013 4.82162C12.1649 4.66971 12.3709 4.58437 12.5857 4.58437Z" fill="#061132"/>
</svg>
