<svg width="16" height="16" viewBox="0 0 16 16" fill="none" xmlns="http://www.w3.org/2000/svg">
<path d="M7.99023 0.25C10.0492 0.255298 12.0219 1.07763 13.4751 2.53638C14.9282 3.99512 15.7429 5.971 15.7402 8.03C15.7333 10.041 14.945 11.9706 13.5418 13.4111C12.1386 14.8516 10.2304 15.6903 8.22023 15.75H7.97023C5.95918 15.7458 4.02852 14.96 2.58611 13.5586C1.1437 12.1573 0.302508 10.2501 0.240234 8.24V7.99C0.242884 5.93631 1.06057 3.96763 2.51369 2.51639C3.96681 1.06514 5.93654 0.249998 7.99023 0.25ZM9.94023 8.75H6.04023C6.19023 11.65 7.21023 14.09 7.92023 14.25H7.99023C8.67023 14.25 9.71023 11.88 9.92023 9.02L9.94023 8.75ZM14.2002 8.75H11.4402C11.3502 10.71 10.9102 12.53 10.2602 13.83C11.2742 13.4336 12.1672 12.7795 12.8511 11.9325C13.5351 11.0855 13.9863 10.0747 14.1602 9L14.2002 8.75ZM4.53023 8.75H1.79023C1.92625 9.87388 2.36449 10.9398 3.05831 11.8344C3.75212 12.729 4.67553 13.4186 5.73023 13.83C5.04317 12.3531 4.64922 10.757 4.57023 9.13L4.54023 8.75H4.53023ZM5.73023 2.17L5.61023 2.22C4.5829 2.64311 3.68668 3.33201 3.0136 4.21598C2.34051 5.09995 1.91482 6.14713 1.78023 7.25H4.53023C4.62023 5.42 5.01023 3.71 5.59023 2.44L5.73023 2.17ZM7.98023 1.75C7.28023 1.75 6.20023 4.26 6.04023 7.25H9.94023C9.79023 4.35 8.76023 1.91 8.05023 1.75H7.98023ZM10.2602 2.18L10.2902 2.23C11.0058 3.80947 11.3969 5.51655 11.4402 7.25H14.1902C14.0513 6.12971 13.613 5.06757 12.9214 4.17536C12.2298 3.28315 11.3105 2.59385 10.2602 2.18Z" fill="white"/>
</svg>
