<svg width="20" height="20" viewBox="0 0 20 20" fill="none" xmlns="http://www.w3.org/2000/svg">
<path d="M11.6641 7.5013V4.16797C11.6641 3.50493 11.4007 2.86904 10.9318 2.4002C10.463 1.93136 9.8271 1.66797 9.16406 1.66797L5.83073 9.16797V18.3346H15.2307C15.6327 18.3392 16.0227 18.1983 16.329 17.938C16.6353 17.6776 16.8371 17.3154 16.8974 16.918L18.0474 9.41797C18.0837 9.1791 18.0675 8.9352 18.0002 8.70318C17.9328 8.47115 17.8158 8.25655 17.6573 8.07423C17.4987 7.89191 17.3025 7.74624 17.082 7.64732C16.8616 7.54839 16.6223 7.49857 16.3807 7.5013H11.6641ZM5.83073 18.3346H3.33073C2.8887 18.3346 2.46478 18.159 2.15222 17.8465C1.83966 17.5339 1.66406 17.11 1.66406 16.668V10.8346C1.66406 10.3926 1.83966 9.96869 2.15222 9.65612C2.46478 9.34356 2.8887 9.16797 3.33073 9.16797H5.83073" fill="#5E5E5E" fill-opacity="0.7"/>
<path d="M5.83073 9.16797L9.16406 1.66797C9.8271 1.66797 10.463 1.93136 10.9318 2.4002C11.4007 2.86904 11.6641 3.50493 11.6641 4.16797V7.5013H16.3807C16.6223 7.49857 16.8616 7.54839 17.082 7.64732C17.3025 7.74624 17.4987 7.89191 17.6573 8.07423C17.8158 8.25655 17.9328 8.47115 18.0002 8.70318C18.0675 8.9352 18.0837 9.1791 18.0474 9.41797L16.8974 16.918C16.8371 17.3154 16.6353 17.6776 16.329 17.938C16.0227 18.1983 15.6327 18.3392 15.2307 18.3346H5.83073M5.83073 9.16797V18.3346M5.83073 9.16797H3.33073C2.8887 9.16797 2.46478 9.34356 2.15222 9.65612C1.83966 9.96868 1.66406 10.3926 1.66406 10.8346V16.668C1.66406 17.11 1.83966 17.5339 2.15222 17.8465C2.46478 18.159 2.8887 18.3346 3.33073 18.3346H5.83073" stroke="white" stroke-linecap="round" stroke-linejoin="round"/>
</svg>
