<svg width="21" height="21" viewBox="0 0 21 21" fill="none" xmlns="http://www.w3.org/2000/svg"><path d="M6.33073 9.47656L9.66406 1.97656C10.3271 1.97656 10.963 2.23995 11.4318 2.7088C11.9007 3.17764 12.1641 3.81352 12.1641 4.47656V7.8099H16.8807C17.1223 7.80716 17.3616 7.85698 17.582 7.95591C17.8025 8.05484 17.9987 8.20051 18.1573 8.38282C18.3158 8.56514 18.4328 8.77975 18.5002 9.01177C18.5675 9.2438 18.5837 9.48769 18.5474 9.72656L17.3974 17.2266C17.3371 17.624 17.1353 17.9862 16.829 18.2466C16.5227 18.5069 16.1327 18.6478 15.7307 18.6432H6.33073M6.33073 9.47656V18.6432M6.33073 9.47656H3.83073C3.3887 9.47656 2.96478 9.65216 2.65222 9.96472C2.33966 10.2773 2.16406 10.7012 2.16406 11.1432V16.9766C2.16406 17.4186 2.33966 17.8425 2.65222 18.1551C2.96478 18.4676 3.3887 18.6432 3.83073 18.6432H6.33073" stroke="#222222" stroke-linecap="round" stroke-linejoin="round"/></svg>