<svg width="16" height="12" viewBox="0 0 16 12" fill="none" xmlns="http://www.w3.org/2000/svg">
<path d="M14.855 6.34281L10.355 10.8428C10.2593 10.9247 10.1363 10.9675 10.0105 10.9627C9.88463 10.9578 9.76527 10.9056 9.67622 10.8166C9.58717 10.7275 9.53501 10.6082 9.53014 10.4823C9.52528 10.3565 9.56809 10.2335 9.65 10.1378L13.295 6.48781H1.5C1.36739 6.48781 1.24021 6.43513 1.14645 6.34136C1.05268 6.24759 1 6.12042 1 5.98781C1 5.8552 1.05268 5.72802 1.14645 5.63425C1.24021 5.54049 1.36739 5.48781 1.5 5.48781H13.295L9.645 1.84281C9.56309 1.74716 9.52028 1.62412 9.52514 1.49828C9.53001 1.37244 9.58217 1.25307 9.67122 1.16402C9.76027 1.07498 9.87963 1.02281 10.0055 1.01795C10.1313 1.01309 10.2543 1.05589 10.35 1.13781L14.85 5.63781C14.9431 5.73149 14.9954 5.85821 14.9954 5.99031C14.9954 6.1224 14.9431 6.24913 14.85 6.34281H14.855Z" fill="white" stroke="white" stroke-width="0.4"/>
</svg>
