<svg width="16" height="16" viewBox="0 0 16 16" fill="none" xmlns="http://www.w3.org/2000/svg">
<path d="M14.855 8.35453L10.355 12.8545C10.2593 12.9364 10.1363 12.9792 10.0105 12.9744C9.88463 12.9695 9.76527 12.9174 9.67622 12.8283C9.58717 12.7393 9.53501 12.6199 9.53014 12.4941C9.52528 12.3682 9.56809 12.2452 9.65 12.1495L13.295 8.49953H1.5C1.36739 8.49953 1.24021 8.44685 1.14645 8.35308C1.05268 8.25931 1 8.13213 1 7.99953C1 7.86692 1.05268 7.73974 1.14645 7.64597C1.24021 7.5522 1.36739 7.49953 1.5 7.49953H13.295L9.645 3.85453C9.56309 3.75887 9.52028 3.63584 9.52514 3.51C9.53001 3.38416 9.58217 3.26479 9.67122 3.17574C9.76027 3.0867 9.87963 3.03453 10.0055 3.02967C10.1313 3.02481 10.2543 3.06761 10.35 3.14953L14.85 7.64953C14.9431 7.74321 14.9954 7.86993 14.9954 8.00203C14.9954 8.13412 14.9431 8.26084 14.85 8.35453H14.855Z" fill="black" stroke="black" stroke-width="0.4"/>
</svg>
