<svg width="33" height="32" viewBox="0 0 33 32" fill="none" xmlns="http://www.w3.org/2000/svg">
<path d="M28.5 13.3281C28.5 22.6615 16.5 30.6615 16.5 30.6615C16.5 30.6615 4.5 22.6615 4.5 13.3281C4.5 10.1455 5.76428 7.09328 8.01472 4.84284C10.2652 2.59241 13.3174 1.32812 16.5 1.32812C19.6826 1.32813 22.7348 2.59241 24.9853 4.84284C27.2357 7.09328 28.5 10.1455 28.5 13.3281Z" fill="#222222"/>
<path d="M16.5 17.3281C18.7091 17.3281 20.5 15.5373 20.5 13.3281C20.5 11.119 18.7091 9.32812 16.5 9.32812C14.2909 9.32812 12.5 11.119 12.5 13.3281C12.5 15.5373 14.2909 17.3281 16.5 17.3281Z" fill="white"/>
</svg>
