<svg width="53" height="53" viewBox="0 0 53 53" fill="none" xmlns="http://www.w3.org/2000/svg">
<rect width="53" height="53" rx="26.5" fill="#FF4B01" fill-opacity="0.1"/>
<path d="M31.1665 17.1665C31.1665 16.8571 31.0436 16.5604 30.8248 16.3417C30.6061 16.1229 30.3094 16 30 16H23C22.6906 16 22.3939 16.1229 22.1752 16.3417C21.9564 16.5604 21.8335 16.8571 21.8335 17.1665V20.6665H31.1665V17.1665ZM37 35.8335V21.8335C37.0001 21.6803 36.97 21.5285 36.9114 21.387C36.8528 21.2454 36.7669 21.1167 36.6585 21.0083C36.5502 20.9 36.4216 20.814 36.28 20.7553C36.1385 20.6967 35.9868 20.6665 35.8335 20.6665H17.1665C17.0132 20.6665 16.8615 20.6967 16.72 20.7553C16.5784 20.814 16.4498 20.9 16.3415 21.0083C16.2331 21.1167 16.1472 21.2454 16.0886 21.387C16.03 21.5285 15.9999 21.6803 16 21.8335V35.8335C16 36.1429 16.1229 36.4396 16.3417 36.6583C16.5604 36.8771 16.8571 37 17.1665 37H35.8335C36.1429 37 36.4396 36.8771 36.6583 36.6583C36.8771 36.4396 37 36.1429 37 35.8335Z" stroke="#FF4B01" stroke-width="1.6" stroke-linecap="round" stroke-linejoin="round"/>
<path d="M25.3335 28.8331H22.58C21.6745 28.8254 20.7908 28.5543 20.0367 28.0529C19.2827 27.5515 18.6909 26.8415 18.3335 26.0095L16.21 21.1678C16.317 21.0131 16.46 20.8867 16.6265 20.7993C16.7931 20.712 16.9783 20.6662 17.1664 20.666H35.8335C36.0216 20.6662 36.2068 20.712 36.3734 20.7993C36.54 20.8867 36.6829 21.0131 36.79 21.1678L34.6664 26.0095C34.309 26.8415 33.7172 27.5515 32.9632 28.0529C32.2091 28.5543 31.3254 28.8254 30.42 28.8331H27.6664" stroke="#FF4B01" stroke-width="1.6" stroke-linecap="round" stroke-linejoin="round"/>
<path d="M27.6665 27.666H25.3335V29.9995H27.6665V27.666Z" stroke="#FF4B01" stroke-width="1.6" stroke-linecap="round" stroke-linejoin="round"/>
</svg>
