<svg width="24" height="25" viewBox="0 0 24 25" fill="none" xmlns="http://www.w3.org/2000/svg">
<path d="M11.9967 4.21484C6.86822 4.21484 2.71094 7.69413 2.71094 11.986C2.71094 14.1271 3.94037 16.1924 5.66265 17.6296C5.97008 17.886 6.14551 18.266 6.14365 18.6663C6.13951 19.4966 6.13951 20.7716 6.13951 20.7716C6.13951 21.1977 6.59465 21.4693 6.96965 21.267C6.96965 21.267 8.43437 20.2984 9.22065 19.7977C9.50208 19.6184 9.83908 19.5508 10.1682 19.606C10.7594 19.705 11.3708 19.757 11.9967 19.757C17.1251 19.757 21.2824 16.2777 21.2824 11.9858C21.2824 7.69399 17.1251 4.21484 11.9967 4.21484Z" fill="white"/>
<path d="M6.70529 22.0499C6.47957 22.0499 6.25443 21.989 6.05129 21.8679C5.66143 21.6351 5.42857 21.2251 5.42857 20.7711C5.42857 20.7711 5.42857 19.494 5.43257 18.6623C5.43343 18.4739 5.35171 18.2971 5.20829 18.1774C3.19943 16.501 2 14.1863 2 11.9854C2 7.30657 6.486 3.5 12 3.5C17.514 3.5 22 7.30657 22 11.9854C22 16.6643 17.514 20.4709 12 20.4709C11.346 20.4709 10.6911 20.4167 10.0536 20.31C9.89771 20.284 9.73943 20.3159 9.60771 20.3997C8.83543 20.8914 7.38157 21.8526 7.36686 21.8623C7.349 21.8741 7.33086 21.885 7.312 21.8951C7.12071 21.9984 6.91286 22.0499 6.70529 22.0499ZM12 4.92857C7.27371 4.92857 3.42857 8.09429 3.42857 11.9854C3.42857 13.7677 4.436 15.6724 6.12357 17.0806C6.59529 17.4741 6.86414 18.0533 6.86114 18.6693C6.85829 19.2556 6.85743 20.0643 6.85714 20.4873C7.32286 20.1804 8.26557 19.5609 8.84029 19.1949C9.27029 18.9211 9.785 18.8169 10.2893 18.9011C10.8493 18.995 11.4249 19.0424 12 19.0424C16.7263 19.0424 20.5714 15.8767 20.5714 11.9856C20.5714 8.09443 16.7263 4.92857 12 4.92857Z" fill="#222222"/>
<path d="M7.11298 14.6109C6.92055 14.6109 6.72869 14.5336 6.58784 14.381C6.32026 14.0911 6.33841 13.6391 6.62826 13.3717L10.0004 10.2599C10.259 10.021 10.6533 10.0063 10.929 10.2253L13.4468 12.2243L16.3694 9.52729C16.6594 9.25972 17.1113 9.27786 17.3787 9.56772C17.6463 9.85757 17.6281 10.3096 17.3383 10.577L13.9661 13.6889C13.7074 13.9274 13.3133 13.9423 13.0375 13.7234L10.5198 11.7244L7.59726 14.4214C7.45998 14.5483 7.28626 14.6109 7.11298 14.6109Z" fill="#222222"/>
</svg>
