<svg width="18" height="26" viewBox="0 0 18 26" fill="none" xmlns="http://www.w3.org/2000/svg">
<g clip-path="url(#clip0_5277_12294)">
<path d="M8.8418 1.53125V24.5878M12.5259 5.72335H6.99976C6.3158 5.72335 5.65986 6.10981 5.17623 6.79771C4.6926 7.48561 4.4209 8.4186 4.4209 9.39143C4.4209 10.3643 4.6926 11.2973 5.17623 11.9852C5.65986 12.6731 6.3158 13.0595 6.99976 13.0595H10.6838C11.3678 13.0595 12.0237 13.446 12.5074 14.1339C12.991 14.8218 13.2627 15.7548 13.2627 16.7276C13.2627 17.7004 12.991 18.6334 12.5074 19.3213C12.0237 20.0092 11.3678 20.3957 10.6838 20.3957H4.4209" stroke="#1E1E1E" stroke-width="1.5" stroke-linecap="round" stroke-linejoin="round"/>
</g>
<defs>
<clipPath id="clip0_5277_12294">
<rect width="17.6836" height="25.1526" fill="white" transform="translate(0 0.484375)"/>
</clipPath>
</defs>
</svg>
