<svg width="28" height="28" viewBox="0 0 28 28" fill="none" xmlns="http://www.w3.org/2000/svg">
<path d="M25.375 11.1562C25.549 11.1562 25.716 11.0871 25.839 10.964C25.9621 10.841 26.0312 10.674 26.0312 10.5V7C26.0312 6.59389 25.8699 6.20441 25.5828 5.91724C25.2956 5.63008 24.9061 5.46875 24.5 5.46875H3.5C3.09389 5.46875 2.70441 5.63008 2.41724 5.91724C2.13008 6.20441 1.96875 6.59389 1.96875 7V10.5C1.96875 10.674 2.03789 10.841 2.16096 10.964C2.28403 11.0871 2.45095 11.1562 2.625 11.1562C3.37921 11.1562 4.10253 11.4559 4.63583 11.9892C5.16914 12.5225 5.46875 13.2458 5.46875 14C5.46875 14.7542 5.16914 15.4775 4.63583 16.0108C4.10253 16.5441 3.37921 16.8438 2.625 16.8438C2.45095 16.8438 2.28403 16.9129 2.16096 17.036C2.03789 17.159 1.96875 17.326 1.96875 17.5V21C1.96875 21.4061 2.13008 21.7956 2.41724 22.0828C2.70441 22.3699 3.09389 22.5312 3.5 22.5312H24.5C24.9061 22.5312 25.2956 22.3699 25.5828 22.0828C25.8699 21.7956 26.0312 21.4061 26.0312 21V17.5C26.0312 17.326 25.9621 17.159 25.839 17.036C25.716 16.9129 25.549 16.8438 25.375 16.8438C24.6208 16.8438 23.8975 16.5441 23.3642 16.0108C22.8309 15.4775 22.5312 14.7542 22.5312 14C22.5312 13.2458 22.8309 12.5225 23.3642 11.9892C23.8975 11.4559 24.6208 11.1562 25.375 11.1562ZM3.28125 21V18.1048C4.25837 17.9497 5.14811 17.4511 5.79051 16.6987C6.43291 15.9463 6.78583 14.9894 6.78583 14C6.78583 13.0106 6.43291 12.0537 5.79051 11.3013C5.14811 10.5489 4.25837 10.0503 3.28125 9.89516V7C3.28125 6.94198 3.3043 6.88634 3.34532 6.84532C3.38634 6.8043 3.44198 6.78125 3.5 6.78125H9.84375V21.2188H3.5C3.44198 21.2188 3.38634 21.1957 3.34532 21.1547C3.3043 21.1137 3.28125 21.058 3.28125 21ZM24.7188 18.1048V21C24.7188 21.058 24.6957 21.1137 24.6547 21.1547C24.6137 21.1957 24.558 21.2188 24.5 21.2188H11.1562V6.78125H24.5C24.558 6.78125 24.6137 6.8043 24.6547 6.84532C24.6957 6.88634 24.7188 6.94198 24.7188 7V9.89516C23.7416 10.0503 22.8519 10.5489 22.2095 11.3013C21.5671 12.0537 21.2142 13.0106 21.2142 14C21.2142 14.9894 21.5671 15.9463 22.2095 16.6987C22.8519 17.4511 23.7416 17.9497 24.7188 18.1048Z" fill="black"/>
</svg>
