<svg width="16" height="17" viewBox="0 0 16 17" fill="none" xmlns="http://www.w3.org/2000/svg">
<path d="M14.665 11.5893V13.5893C14.6657 13.775 14.6277 13.9588 14.5533 14.1289C14.479 14.299 14.3699 14.4517 14.233 14.5772C14.0962 14.7027 13.9347 14.7983 13.7588 14.8578C13.5829 14.9173 13.3966 14.9394 13.2117 14.9226C11.1602 14.6997 9.18966 13.9987 7.45833 12.876C5.84755 11.8524 4.48189 10.4868 3.45833 8.87598C2.33165 7.13678 1.63049 5.15664 1.41166 3.09598C1.395 2.91162 1.41691 2.72582 1.47599 2.55039C1.53508 2.37497 1.63004 2.21377 1.75484 2.07706C1.87964 1.94034 2.03153 1.83112 2.20086 1.75632C2.37018 1.68153 2.55322 1.64282 2.73833 1.64264H4.73833C5.06187 1.63946 5.37552 1.75403 5.62084 1.965C5.86615 2.17597 6.02638 2.46894 6.07166 2.78931C6.15608 3.42935 6.31263 4.05779 6.53833 4.66264C6.62802 4.90126 6.64744 5.16059 6.59427 5.4099C6.5411 5.65921 6.41757 5.88805 6.23833 6.06931L5.39166 6.91598C6.3407 8.58501 7.72263 9.96694 9.39166 10.916L10.2383 10.0693C10.4196 9.89007 10.6484 9.76654 10.8977 9.71337C11.1471 9.6602 11.4064 9.67961 11.645 9.76931C12.2498 9.99501 12.8783 10.1516 13.5183 10.236C13.8422 10.2817 14.1379 10.4448 14.3494 10.6943C14.5608 10.9438 14.6731 11.2624 14.665 11.5893Z" stroke="#5E5E5E" stroke-linecap="round" stroke-linejoin="round"/>
</svg>
