<svg width="20" height="20" viewBox="0 0 20 20" fill="none" xmlns="http://www.w3.org/2000/svg">
<path d="M19.1665 3.33325V8.33325H14.1665" stroke="#FB6161" stroke-width="1.5" stroke-linecap="round" stroke-linejoin="round"/>
<path d="M0.833496 16.6667V11.6667H5.8335" stroke="#FB6161" stroke-width="1.5" stroke-linecap="round" stroke-linejoin="round"/>
<path d="M2.92484 7.49998C3.34748 6.30564 4.06578 5.23782 5.01273 4.39616C5.95967 3.55451 7.10439 2.96645 8.34008 2.68686C9.57576 2.40727 10.8621 2.44527 12.0792 2.79729C13.2962 3.14932 14.4042 3.80391 15.2998 4.69998L19.1665 8.33331M0.83317 11.6666L4.69984 15.3C5.59546 16.1961 6.70348 16.8506 7.92051 17.2027C9.13754 17.5547 10.4239 17.5927 11.6596 17.3131C12.8953 17.0335 14.04 16.4455 14.9869 15.6038C15.9339 14.7621 16.6522 13.6943 17.0748 12.5" stroke="#FB6161" stroke-width="1.5" stroke-linecap="round" stroke-linejoin="round"/>
</svg>
