<svg width="20" height="20" viewBox="0 0 20 20" fill="none" xmlns="http://www.w3.org/2000/svg">
<rect width="20" height="20" rx="10" fill="black" fill-opacity="0.7"/>
<path d="M14.375 9.375H10.625V5.625C10.625 5.45924 10.5592 5.30027 10.4419 5.18306C10.3247 5.06585 10.1658 5 10 5C9.83424 5 9.67527 5.06585 9.55806 5.18306C9.44085 5.30027 9.375 5.45924 9.375 5.625V9.375H5.625C5.45924 9.375 5.30027 9.44085 5.18306 9.55806C5.06585 9.67527 5 9.83424 5 10C5 10.1658 5.06585 10.3247 5.18306 10.4419C5.30027 10.5592 5.45924 10.625 5.625 10.625H9.375V14.375C9.375 14.5408 9.44085 14.6997 9.55806 14.8169C9.67527 14.9342 9.83424 15 10 15C10.1658 15 10.3247 14.9342 10.4419 14.8169C10.5592 14.6997 10.625 14.5408 10.625 14.375V10.625H14.375C14.5408 10.625 14.6997 10.5592 14.8169 10.4419C14.9342 10.3247 15 10.1658 15 10C15 9.83424 14.9342 9.67527 14.8169 9.55806C14.6997 9.44085 14.5408 9.375 14.375 9.375Z" fill="white"/>
</svg>
