<svg width="16" height="16" viewBox="0 0 16 16" fill="none" xmlns="http://www.w3.org/2000/svg">
<path d="M14 10.7263V7.39834C14 4.53834 14 3.10967 13.1213 2.22101C12.2427 1.33301 10.828 1.33301 8 1.33301C5.17133 1.33301 3.75733 1.33301 2.87867 2.22101C2 3.10967 2 4.53967 2 7.39834V10.727C2 12.791 2 13.8237 2.48933 14.2743C2.72267 14.4897 3.01733 14.625 3.33133 14.661C3.98933 14.7363 4.758 14.0563 6.29467 12.697C6.97467 12.0963 7.314 11.7957 7.70667 11.717C7.9 11.677 8.1 11.677 8.29333 11.717C8.68667 11.7957 9.026 12.0963 9.70533 12.697C11.242 14.0563 12.0107 14.7363 12.6687 14.6603C12.982 14.625 13.2773 14.4897 13.5107 14.2743C14 13.8237 14 12.791 14 10.7263Z" stroke="#FF4B01" stroke-width="1.2"/>
<path d="M10 4H6" stroke="#FF4B01" stroke-width="1.2" stroke-linecap="round"/>
</svg>
