<svg width="14" height="15" viewBox="0 0 14 15" fill="none" xmlns="http://www.w3.org/2000/svg">
<path d="M12.25 9.88518V6.97318C12.25 4.47068 12.25 3.2206 11.4812 2.44302C10.7123 1.66602 9.4745 1.66602 7 1.66602C4.52492 1.66602 3.28767 1.66602 2.51883 2.44302C1.75 3.2206 1.75 4.47185 1.75 6.97318V9.88576C1.75 11.6918 1.75 12.5953 2.17817 12.9897C2.38233 13.1781 2.64017 13.2965 2.91492 13.328C3.49067 13.3939 4.16325 12.7989 5.50783 11.6095C6.10283 11.0839 6.39975 10.8208 6.74333 10.752C6.9125 10.717 7.0875 10.717 7.25667 10.752C7.60083 10.8208 7.89775 11.0839 8.49217 11.6095C9.83675 12.7989 10.5093 13.3939 11.0851 13.3274C11.3592 13.2965 11.6177 13.1781 11.8218 12.9897C12.25 12.5953 12.25 11.6918 12.25 9.88518Z" stroke="black" stroke-width="1.2"/>
<path d="M8.75 4H5.25" stroke="black" stroke-width="1.2" stroke-linecap="round"/>
</svg>
