<svg width="7" height="7" viewBox="0 0 7 7" fill="none" xmlns="http://www.w3.org/2000/svg">
<path d="M2.66673 1.33333H2.06673C1.69336 1.33333 1.50654 1.33333 1.36393 1.406C1.23849 1.46991 1.13658 1.57182 1.07266 1.69727C1 1.83987 1 2.0267 1 2.40007V4.9334C1 5.30677 1 5.49337 1.07266 5.63597C1.13658 5.7614 1.23849 5.8635 1.36393 5.9274C1.5064 6 1.693 6 2.06564 6H4.60103C4.97367 6 5.16 6 5.30247 5.9274C5.4279 5.8635 5.53017 5.7613 5.59407 5.63587C5.66667 5.4934 5.66667 5.307 5.66667 4.93437V4.33333M6 2.66667V1M6 1H4.33333M6 1L3.66667 3.33333" stroke="black" stroke-width="0.7" stroke-linecap="round" stroke-linejoin="round"/>
</svg>
