<svg width="14" height="15" viewBox="0 0 14 15" fill="none" xmlns="http://www.w3.org/2000/svg">
<path d="M12.25 9.88713V6.97513C12.25 4.47263 12.25 3.22255 11.4812 2.44497C10.7123 1.66797 9.4745 1.66797 7 1.66797C4.52492 1.66797 3.28767 1.66797 2.51883 2.44497C1.75 3.22255 1.75 4.4738 1.75 6.97513V9.88772C1.75 11.6937 1.75 12.5973 2.17817 12.9916C2.38233 13.18 2.64017 13.2985 2.91492 13.33C3.49067 13.3959 4.16325 12.8009 5.50783 11.6115C6.10283 11.0859 6.39975 10.8228 6.74333 10.754C6.9125 10.719 7.0875 10.719 7.25667 10.754C7.60083 10.8228 7.89775 11.0859 8.49217 11.6115C9.83675 12.8009 10.5093 13.3959 11.0851 13.3294C11.3593 13.2985 11.6177 13.18 11.8218 12.9916C12.25 12.5973 12.25 11.6937 12.25 9.88713Z" fill="black" stroke="#030303"/><path d="M8.98242 4.33984H5.48242" stroke="#030303" stroke-linecap="round"/></svg>