<svg width="16" height="16" viewBox="0 0 16 16" fill="none" xmlns="http://www.w3.org/2000/svg">
<path d="M9.02338 11.5131L6.37134 10.1392C6.0251 10.4908 5.57553 10.7354 5.08106 10.8411C4.58658 10.9468 4.07006 10.9088 3.59863 10.732C3.12719 10.5552 2.72264 10.2478 2.43755 9.8497C2.15245 9.45163 2 8.98131 2 8.49986C2 8.01841 2.15245 7.54809 2.43755 7.15002C2.72264 6.75195 3.12719 6.44455 3.59863 6.26775C4.07006 6.09095 4.58658 6.05294 5.08106 6.15865C5.57553 6.26436 6.0251 6.50891 6.37134 6.86052L9.02401 5.48664C8.87363 4.92028 8.94588 4.32125 9.2272 3.80186C9.50853 3.28247 9.97962 2.87838 10.5522 2.66533C11.1247 2.45228 11.7594 2.4449 12.3373 2.64458C12.9151 2.84425 13.3965 3.23727 13.6911 3.74996C13.9858 4.26266 14.0734 4.85982 13.9377 5.42952C13.8019 5.99921 13.4521 6.50232 12.9538 6.84454C12.4555 7.18676 11.8429 7.34458 11.2308 7.28844C10.6187 7.23229 10.0492 6.96602 9.62907 6.53955L6.9764 7.91342C7.07822 8.2982 7.07822 8.70093 6.9764 9.08571L9.62907 10.4596C10.0495 10.0333 10.6191 9.76732 11.2312 9.71145C11.8432 9.65559 12.4558 9.81369 12.9539 10.1561C13.452 10.4986 13.8016 11.0018 13.9371 11.5715C14.0725 12.1413 13.9846 12.7384 13.6897 13.251C13.3949 13.7635 12.9134 14.1563 12.3354 14.3558C11.7575 14.5552 11.1228 14.5476 10.5503 14.3343C9.9779 14.121 9.50699 13.7168 9.22589 13.1973C8.94478 12.6778 8.87278 12.0788 9.02338 11.5125M4.52648 9.69945C4.86149 9.69945 5.18279 9.57303 5.41968 9.34801C5.65657 9.12299 5.78965 8.81779 5.78965 8.49956C5.78965 8.18133 5.65657 7.87614 5.41968 7.65111C5.18279 7.42609 4.86149 7.29967 4.52648 7.29967C4.19146 7.29967 3.87017 7.42609 3.63328 7.65111C3.39639 7.87614 3.2633 8.18133 3.2633 8.49956C3.2633 8.81779 3.39639 9.12299 3.63328 9.34801C3.87017 9.57303 4.19146 9.69945 4.52648 9.69945ZM11.4739 6.09979C11.809 6.09979 12.1302 5.97337 12.3671 5.74835C12.604 5.52332 12.7371 5.21813 12.7371 4.8999C12.7371 4.58167 12.604 4.27647 12.3671 4.05145C12.1302 3.82643 11.809 3.70001 11.4739 3.70001C11.1389 3.70001 10.8176 3.82643 10.5807 4.05145C10.3438 4.27647 10.2108 4.58167 10.2108 4.8999C10.2108 5.21813 10.3438 5.52332 10.5807 5.74835C10.8176 5.97337 11.1389 6.09979 11.4739 6.09979ZM11.4739 13.2991C11.809 13.2991 12.1302 13.1727 12.3671 12.9477C12.604 12.7227 12.7371 12.4175 12.7371 12.0992C12.7371 11.781 12.604 11.4758 12.3671 11.2508C12.1302 11.0258 11.809 10.8993 11.4739 10.8993C11.1389 10.8993 10.8176 11.0258 10.5807 11.2508C10.3438 11.4758 10.2108 11.781 10.2108 12.0992C10.2108 12.4175 10.3438 12.7227 10.5807 12.9477C10.8176 13.1727 11.1389 13.2991 11.4739 13.2991Z" fill="#FF4B01"/>
</svg>
