<svg width="16" height="17" viewBox="0 0 16 17" fill="none" xmlns="http://www.w3.org/2000/svg">
<path d="M9.02338 12.0131L6.37134 10.6392C6.0251 10.9908 5.57553 11.2354 5.08106 11.3411C4.58658 11.4468 4.07006 11.4088 3.59863 11.232C3.12719 11.0552 2.72264 10.7478 2.43755 10.3497C2.15245 9.95163 2 9.48131 2 8.99986C2 8.51841 2.15245 8.04809 2.43755 7.65002C2.72264 7.25195 3.12719 6.94455 3.59863 6.76775C4.07006 6.59095 4.58658 6.55294 5.08106 6.65865C5.57553 6.76436 6.0251 7.00891 6.37134 7.36052L9.02401 5.98664C8.87363 5.42028 8.94588 4.82125 9.2272 4.30186C9.50853 3.78247 9.97962 3.37838 10.5522 3.16533C11.1247 2.95228 11.7594 2.9449 12.3373 3.14458C12.9151 3.34425 13.3965 3.73727 13.6911 4.24996C13.9858 4.76266 14.0734 5.35982 13.9377 5.92952C13.8019 6.49921 13.4521 7.00232 12.9538 7.34454C12.4555 7.68676 11.8429 7.84458 11.2308 7.78844C10.6187 7.73229 10.0492 7.46602 9.62907 7.03955L6.9764 8.41342C7.07822 8.7982 7.07822 9.20093 6.9764 9.58571L9.62907 10.9596C10.0495 10.5333 10.6191 10.2673 11.2312 10.2115C11.8432 10.1556 12.4558 10.3137 12.9539 10.6561C13.452 10.9986 13.8016 11.5018 13.9371 12.0715C14.0725 12.6413 13.9846 13.2384 13.6897 13.751C13.3949 14.2635 12.9134 14.6563 12.3354 14.8558C11.7575 15.0552 11.1228 15.0476 10.5503 14.8343C9.9779 14.621 9.50699 14.2168 9.22589 13.6973C8.94478 13.1778 8.87278 12.5788 9.02338 12.0125M4.52648 10.1994C4.86149 10.1994 5.18279 10.073 5.41968 9.84801C5.65657 9.62299 5.78965 9.31779 5.78965 8.99956C5.78965 8.68133 5.65657 8.37614 5.41968 8.15111C5.18279 7.92609 4.86149 7.79967 4.52648 7.79967C4.19146 7.79967 3.87017 7.92609 3.63328 8.15111C3.39639 8.37614 3.2633 8.68133 3.2633 8.99956C3.2633 9.31779 3.39639 9.62299 3.63328 9.84801C3.87017 10.073 4.19146 10.1994 4.52648 10.1994ZM11.4739 6.59979C11.809 6.59979 12.1302 6.47337 12.3671 6.24835C12.604 6.02332 12.7371 5.71813 12.7371 5.3999C12.7371 5.08167 12.604 4.77647 12.3671 4.55145C12.1302 4.32643 11.809 4.20001 11.4739 4.20001C11.1389 4.20001 10.8176 4.32643 10.5807 4.55145C10.3438 4.77647 10.2108 5.08167 10.2108 5.3999C10.2108 5.71813 10.3438 6.02332 10.5807 6.24835C10.8176 6.47337 11.1389 6.59979 11.4739 6.59979ZM11.4739 13.7991C11.809 13.7991 12.1302 13.6727 12.3671 13.4477C12.604 13.2227 12.7371 12.9175 12.7371 12.5992C12.7371 12.281 12.604 11.9758 12.3671 11.7508C12.1302 11.5258 11.809 11.3993 11.4739 11.3993C11.1389 11.3993 10.8176 11.5258 10.5807 11.7508C10.3438 11.9758 10.2108 12.281 10.2108 12.5992C10.2108 12.9175 10.3438 13.2227 10.5807 13.4477C10.8176 13.6727 11.1389 13.7991 11.4739 13.7991Z" fill="black"/>
</svg>
