<svg width="20" height="20" viewBox="0 0 20 20" fill="none" xmlns="http://www.w3.org/2000/svg">
<path d="M10.9477 1.64429L13.255 6.39868H17.7462C17.9728 6.39072 18.1963 6.4527 18.3864 6.57619C18.5765 6.69968 18.7239 6.8787 18.8087 7.08892C18.8935 7.29914 18.9116 7.53038 18.8604 7.75121C18.8092 7.97205 18.6913 8.17177 18.5227 8.32325L14.6239 12.3969L16.7839 17.3647C16.8781 17.5918 16.8987 17.8427 16.8431 18.0821C16.7874 18.3216 16.6582 18.5376 16.4736 18.6999C16.289 18.8622 16.0582 18.9627 15.8135 18.9872C15.5689 19.0117 15.3228 18.9591 15.1096 18.8366L9.88789 15.8983L4.66802 18.8422C4.45482 18.9653 4.20839 19.0185 3.96338 18.9943C3.71836 18.9701 3.4871 18.8697 3.3021 18.7073C3.1171 18.5448 2.98768 18.3284 2.93202 18.0886C2.87637 17.8488 2.8973 17.5975 2.99185 17.3702L5.15192 12.4024L1.25496 8.32325C1.08674 8.17207 0.96901 7.97287 0.9177 7.75259C0.86639 7.53231 0.883976 7.30159 0.968078 7.09164C1.05218 6.88168 1.19874 6.70262 1.38793 6.57869C1.57712 6.45475 1.79982 6.39191 2.02589 6.39868H6.51715L8.82994 1.64429C8.93041 1.45014 9.08232 1.28736 9.26907 1.17373C9.45582 1.0601 9.67021 1 9.88881 1C10.1074 1 10.3218 1.0601 10.5086 1.17373C10.6953 1.28736 10.8472 1.45014 10.9477 1.64429Z" fill="#222222" stroke="#222222" stroke-linecap="round" stroke-linejoin="round"/>
</svg>
