<svg width="20" height="20" viewBox="0 0 20 20" fill="none" xmlns="http://www.w3.org/2000/svg">
<path d="M11.3921 1.64429L13.6994 6.39868H18.1907C18.4172 6.39072 18.6407 6.4527 18.8308 6.57619C19.0209 6.69968 19.1684 6.8787 19.2532 7.08892C19.338 7.29914 19.356 7.53038 19.3049 7.75121C19.2537 7.97205 19.1358 8.17177 18.9671 8.32325L15.0683 12.3969L17.2284 17.3647C17.3225 17.5918 17.3432 17.8427 17.2875 18.0821C17.2319 18.3216 17.1027 18.5376 16.918 18.6999C16.7334 18.8622 16.5026 18.9627 16.258 18.9872C16.0134 19.0117 15.7672 18.9591 15.5541 18.8366L10.3324 15.8983L5.11248 18.8422C4.89928 18.9653 4.65285 19.0185 4.40783 18.9943C4.16282 18.9701 3.93155 18.8697 3.74656 18.7073C3.56156 18.5448 3.43213 18.3284 3.37648 18.0886C3.32083 17.8488 3.34176 17.5975 3.43631 17.3702L5.59638 12.4024L1.69942 8.32325C1.5312 8.17207 1.41347 7.97287 1.36216 7.75259C1.31085 7.53231 1.32843 7.30159 1.41254 7.09164C1.49664 6.88168 1.6432 6.70262 1.83239 6.57869C2.02158 6.45475 2.24428 6.39191 2.47035 6.39868H6.96161L9.27439 1.64429C9.37487 1.45014 9.52678 1.28736 9.71353 1.17373C9.90028 1.0601 10.1147 1 10.3333 1C10.5519 1 10.7663 1.0601 10.953 1.17373C11.1398 1.28736 11.2917 1.45014 11.3921 1.64429Z" stroke="#222222" stroke-linecap="round" stroke-linejoin="round"/>
</svg>
