<svg width="18" height="18" viewBox="0 0 18 18" fill="none" xmlns="http://www.w3.org/2000/svg">
<path d="M17.9902 2.25V15.75C17.9902 16.3467 17.7532 16.919 17.3312 17.341C16.9093 17.7629 16.337 18 15.7402 18H2.24023C1.6435 18 1.0712 17.7629 0.649244 17.341C0.227287 16.919 -0.00976562 16.3467 -0.00976562 15.75V2.25C-0.00976562 1.65326 0.227287 1.08097 0.649244 0.65901C1.0712 0.237053 1.6435 0 2.24023 0L15.7402 0C16.337 0 16.9093 0.237053 17.3312 0.65901C17.7532 1.08097 17.9902 1.65326 17.9902 2.25Z" fill="white"/>
<path d="M10.4818 4.49473C10.0005 4.75273 9.61563 5.15944 9.38449 5.65416C9.15335 6.14887 9.08839 6.70507 9.1993 7.23973C8.2118 7.19621 7.24507 6.94177 6.36409 6.49352C5.48312 6.04527 4.70832 5.4136 4.0918 4.64098C3.92405 4.90868 3.81102 5.20697 3.75925 5.51861C3.70748 5.83025 3.71799 6.14906 3.79017 6.45661C3.86235 6.76417 3.99477 7.05437 4.17978 7.31044C4.36479 7.5665 4.59872 7.78336 4.86805 7.94848C4.47992 7.94848 4.0918 7.87536 3.74305 7.70098C3.75669 8.26597 3.95736 8.81048 4.31363 9.2492C4.6699 9.68791 5.16163 9.99606 5.7118 10.1254C5.34467 10.2249 4.95923 10.2365 4.5868 10.1591C4.7571 10.6555 5.0731 11.089 5.49354 11.4031C5.91399 11.7172 6.41935 11.8972 6.94367 11.9197C6.43426 12.3404 5.84165 12.6485 5.20474 12.824C4.56783 12.9995 3.90101 13.0383 3.24805 12.9379C4.33529 13.6639 5.60421 14.0709 6.91095 14.1126C8.21768 14.1543 9.50997 13.8291 10.6413 13.1739C11.7727 12.5186 12.6978 11.5595 13.3119 10.4053C13.9259 9.25104 14.2043 7.94787 14.1155 6.64348C14.6099 6.30003 15.0275 5.85755 15.3418 5.34411C14.8982 5.55802 14.4236 5.7004 13.9355 5.76598C14.4636 5.44333 14.8617 4.94569 15.0605 4.35973C14.5712 4.64098 14.0424 4.84911 13.4799 4.95598C13.0973 4.5634 12.5976 4.30564 12.0559 4.22144C11.5143 4.13725 10.9599 4.23118 10.4762 4.48911L10.4818 4.49473Z" fill="#061132"/>
</svg>
