<svg width="24" height="24" viewBox="0 0 24 24" fill="none" xmlns="http://www.w3.org/2000/svg">
<rect x="0.5" y="0.5" width="23" height="23" rx="11.5" stroke="black"/>
<path d="M17.3337 18V16.6667C17.3337 15.9594 17.0527 15.2811 16.5526 14.781C16.0525 14.281 15.3742 14 14.667 14H9.33366C8.62641 14 7.94814 14.281 7.44804 14.781C6.94794 15.2811 6.66699 15.9594 6.66699 16.6667V18" stroke="black" stroke-width="1.5" stroke-linecap="round" stroke-linejoin="round"/>
<path d="M11.9997 11.3333C13.4724 11.3333 14.6663 10.1394 14.6663 8.66667C14.6663 7.19391 13.4724 6 11.9997 6C10.5269 6 9.33301 7.19391 9.33301 8.66667C9.33301 10.1394 10.5269 11.3333 11.9997 11.3333Z" stroke="black" stroke-width="1.5" stroke-linecap="round" stroke-linejoin="round"/>
</svg>
