<svg width="28" height="27" viewBox="0 0 28 27" fill="none" xmlns="http://www.w3.org/2000/svg">
<path d="M6.89844 23.6992C5.85156 23.6992 5.07812 23.4492 4.57812 22.9492C4.07812 22.4492 3.82812 21.6758 3.82812 20.6289V18.0977C3.82812 17.8633 3.75 17.6641 3.59375 17.5L1.80078 15.6953C1.05859 14.9609 0.6875 14.2422 0.6875 13.5391C0.6875 12.8359 1.05859 12.1133 1.80078 11.3711L3.59375 9.56641C3.75 9.40234 3.82812 9.20703 3.82812 8.98047V6.4375C3.82812 5.38281 4.07812 4.60938 4.57812 4.11719C5.07812 3.61719 5.85156 3.36719 6.89844 3.36719H9.44141C9.67578 3.36719 9.87109 3.28906 10.0273 3.13281L11.832 1.33984C12.5742 0.597656 13.2969 0.226562 14 0.226562C14.7031 0.21875 15.4219 0.589844 16.1562 1.33984L17.9609 3.13281C18.125 3.28906 18.3242 3.36719 18.5586 3.36719H21.0898C22.1445 3.36719 22.918 3.62109 23.4102 4.12891C23.9102 4.62891 24.1602 5.39844 24.1602 6.4375V8.98047C24.1602 9.20703 24.2422 9.40234 24.4062 9.56641L26.1992 11.3711C26.9336 12.1133 27.3008 12.8359 27.3008 13.5391C27.3086 14.2422 26.9414 14.9609 26.1992 15.6953L24.4062 17.5C24.2422 17.6641 24.1602 17.8633 24.1602 18.0977V20.6289C24.1602 21.6836 23.9102 22.457 23.4102 22.9492C22.9102 23.4492 22.1367 23.6992 21.0898 23.6992H18.5586C18.3242 23.6992 18.125 23.7812 17.9609 23.9453L16.1562 25.7383C15.4219 26.4727 14.7031 26.8398 14 26.8398C13.2969 26.8477 12.5742 26.4805 11.832 25.7383L10.0273 23.9453C9.87109 23.7812 9.67578 23.6992 9.44141 23.6992H6.89844ZM12.6875 19.2578C12.8906 19.2578 13.0742 19.2109 13.2383 19.1172C13.4023 19.0234 13.5469 18.8828 13.6719 18.6953L19.1797 10.0117C19.25 9.89453 19.3164 9.76953 19.3789 9.63672C19.4414 9.50391 19.4727 9.37109 19.4727 9.23828C19.4727 8.96484 19.3711 8.75 19.168 8.59375C18.9648 8.42969 18.7383 8.34766 18.4883 8.34766C18.1445 8.34766 17.8633 8.52734 17.6445 8.88672L12.6406 16.9258L10.2617 13.8555C10.1133 13.6602 9.96875 13.5273 9.82812 13.457C9.69531 13.3867 9.54297 13.3516 9.37109 13.3516C9.10547 13.3516 8.88281 13.4492 8.70312 13.6445C8.52344 13.832 8.43359 14.0586 8.43359 14.3242C8.43359 14.457 8.45703 14.5898 8.50391 14.7227C8.55859 14.8477 8.62891 14.9688 8.71484 15.0859L11.6562 18.6953C11.8125 18.8984 11.9727 19.043 12.1367 19.1289C12.3008 19.2148 12.4844 19.2578 12.6875 19.2578Z" fill="#FF4B01"/>
</svg>
