<svg width="24" height="25" viewBox="0 0 24 25" fill="none" xmlns="http://www.w3.org/2000/svg">
<path d="M14.9946 17.1423C11.0652 17.1423 7.86826 13.836 7.86719 9.77347C7.86826 8.74367 8.67933 7.90625 9.67325 7.90625C9.77544 7.90625 9.87654 7.91515 9.97335 7.93294C10.1863 7.96964 10.3886 8.04415 10.5747 8.15647C10.6016 8.17315 10.6198 8.19986 10.6241 8.231L11.0393 10.9367C11.0447 10.969 11.035 11.0001 11.0146 11.0235C10.7855 11.2859 10.4929 11.475 10.167 11.5695L10.0099 11.6151L10.0691 11.7719C10.6048 13.1821 11.6955 14.3086 13.0605 14.8647L13.2122 14.927L13.2563 14.7646C13.3477 14.4276 13.5306 14.1251 13.7845 13.8882C13.8028 13.8704 13.8275 13.8616 13.8522 13.8616C13.8576 13.8616 13.863 13.8616 13.8694 13.8627L16.4866 14.2919C16.5178 14.2975 16.5436 14.3153 16.5597 14.3431C16.6673 14.5355 16.7393 14.7457 16.7759 14.9659C16.7931 15.0637 16.8007 15.1672 16.8007 15.275C16.8007 16.3037 15.9907 17.1411 14.9946 17.1423Z" fill="#222222"/>
<path d="M21.9624 11.6081C21.7504 9.13256 20.6533 6.83608 18.873 5.14235C17.082 3.43861 14.7586 2.5 12.3286 2.5C6.99543 2.5 2.65617 6.98621 2.65617 12.5C2.65617 14.3505 3.1499 16.1532 4.08466 17.7235L2 22.4945L8.67456 21.7594C9.83521 22.2509 11.0636 22.5 12.3275 22.5C12.6599 22.5 13.0009 22.4822 13.343 22.4455C13.6442 22.4121 13.9486 22.3632 14.2476 22.301C18.7138 21.3679 21.9742 17.2698 22 12.5534V12.5C22 12.1997 21.9871 11.8995 21.9613 11.6092L21.9624 11.6081ZM8.93165 19.6653L5.23886 20.0723L6.34143 17.5467L6.12091 17.2409C6.10478 17.2187 6.08864 17.1964 6.07036 17.1708C5.11301 15.8041 4.60743 14.1893 4.60743 12.5011C4.60743 8.09942 8.0711 4.51845 12.3286 4.51845C16.3172 4.51845 19.6981 7.73577 20.024 11.8428C20.0412 12.063 20.0509 12.2843 20.0509 12.5022C20.0509 12.5645 20.0498 12.6257 20.0487 12.6913C19.967 16.3734 17.4789 19.5007 13.9981 20.2969C13.7324 20.3581 13.4602 20.4048 13.1892 20.4348C12.9073 20.4682 12.618 20.4849 12.3308 20.4849C11.3078 20.4849 10.3139 20.2803 9.37482 19.8755C9.27048 19.8321 9.16829 19.7854 9.07255 19.7376L8.93272 19.6675L8.93165 19.6653Z" fill="#222222"/>
</svg>
