<svg width="19" height="19" viewBox="0 0 19 19" fill="none" xmlns="http://www.w3.org/2000/svg">
<path fill-rule="evenodd" clip-rule="evenodd" d="M5.94241 0.208008C6.49723 0.208008 6.947 0.610956 6.947 1.10801V2.01006C7.2456 2.008 7.56782 2.00801 7.91592 2.00801H12.0056C12.3537 2.00801 12.676 2.008 12.9746 2.01006V1.10801C12.9746 0.610956 13.4243 0.208008 13.9792 0.208008C14.534 0.208008 14.9838 0.610956 14.9838 1.10801V2.12014C15.3044 2.16913 15.6076 2.24153 15.9014 2.35055C17.1322 2.80727 18.11 3.6833 18.6198 4.78593C18.8319 5.24466 18.9199 5.72911 18.9615 6.27699C19.0021 6.80979 19.0021 7.46446 19.0021 8.27604V11.5512C19.0021 12.543 19.0021 13.343 18.9422 13.9904C18.8804 14.6572 18.7497 15.2424 18.4366 15.7824C17.9601 16.6043 17.212 17.2744 16.2947 17.7014C15.6919 17.9818 15.0387 18.0989 14.2944 18.1543C13.5717 18.208 12.6788 18.208 11.5717 18.208H8.34992C7.24279 18.208 6.34984 18.208 5.62713 18.1543C4.88291 18.0989 4.2297 17.9818 3.62695 17.7014C2.70953 17.2744 1.96151 16.6043 1.48495 15.7824C1.17185 15.2424 1.04124 14.6572 0.979428 13.9904C0.919414 13.343 0.919424 12.543 0.919434 11.5512V8.27605C0.919424 7.46446 0.919424 6.80979 0.959999 6.27699C1.00172 5.72911 1.08969 5.24466 1.30178 4.78593C1.81158 3.6833 2.78943 2.80727 4.0202 2.35055C4.31397 2.24153 4.6172 2.16913 4.93781 2.12014V1.10801C4.93781 0.610956 5.38759 0.208008 5.94241 0.208008ZM4.93781 3.96529C4.8845 3.98029 4.83532 3.99637 4.78908 4.01353C4.05062 4.28756 3.46391 4.81319 3.15803 5.47476C3.06424 5.6776 2.99928 5.94329 2.96453 6.39951C2.94321 6.67942 2.93455 7.00617 2.93102 7.40801H16.9905C16.987 7.00617 16.9784 6.67942 16.9571 6.39951C16.9223 5.94329 16.8573 5.6776 16.7635 5.47476C16.4577 4.81319 15.8709 4.28756 15.1325 4.01353C15.0862 3.99637 15.0371 3.98029 14.9838 3.96529V4.70801C14.9838 5.20506 14.534 5.60801 13.9792 5.60801C13.4243 5.60801 12.9746 5.20506 12.9746 4.70801V3.81016C12.6791 3.80809 12.3472 3.80801 11.97 3.80801H7.9516C7.57435 3.80801 7.24248 3.80809 6.947 3.81016V4.70801C6.947 5.20506 6.49723 5.60801 5.94241 5.60801C5.38759 5.60801 4.93781 5.20506 4.93781 4.70801V3.96529ZM16.9929 9.20801H2.92862V11.512C2.92862 12.5522 2.92943 13.2773 2.98173 13.8415C3.03303 14.3949 3.12863 14.7124 3.26793 14.9526C3.55387 15.4458 4.00269 15.8478 4.55313 16.104C4.82131 16.2288 5.17568 16.3145 5.79341 16.3604C6.42317 16.4073 7.23254 16.408 8.39362 16.408H11.528C12.6891 16.408 13.4984 16.4073 14.1281 16.3604C14.7459 16.3145 15.1003 16.2288 15.3684 16.104C15.9189 15.8478 16.3677 15.4458 16.6536 14.9526C16.7929 14.7124 16.8886 14.3949 16.9398 13.8415C16.9921 13.2773 16.9929 12.5522 16.9929 11.512V9.20801ZM10.9654 13.708C10.9654 13.2109 11.4151 12.808 11.97 12.808H13.9792C14.534 12.808 14.9838 13.2109 14.9838 13.708C14.9838 14.2051 14.534 14.608 13.9792 14.608H11.97C11.4151 14.608 10.9654 14.2051 10.9654 13.708Z" fill="#131313"/>
</svg>
